<svg xmlns="http://www.w3.org/2000/svg" viewBox="0 0 128 128" role="img" aria-label="Gold rank badge">
  <defs>
    <linearGradient id="wing" x1="8" y1="18" x2="48" y2="104" gradientUnits="userSpaceOnUse">
      <stop stop-color="#ffe86d"/>
      <stop offset=".44" stop-color="#f9a90a"/>
      <stop offset="1" stop-color="#8b4b00"/>
    </linearGradient>
    <linearGradient id="gold" x1="35" y1="10" x2="92" y2="116" gradientUnits="userSpaceOnUse">
      <stop stop-color="#fff59d"/>
      <stop offset=".18" stop-color="#ffd73c"/>
      <stop offset=".54" stop-color="#f6a400"/>
      <stop offset=".78" stop-color="#a95c00"/>
      <stop offset="1" stop-color="#ffcf40"/>
    </linearGradient>
    <linearGradient id="shieldInner" x1="41" y1="27" x2="84" y2="96" gradientUnits="userSpaceOnUse">
      <stop stop-color="#7a4300"/>
      <stop offset=".55" stop-color="#2b1a08"/>
      <stop offset="1" stop-color="#5a3000"/>
    </linearGradient>
    <linearGradient id="star" x1="47" y1="39" x2="84" y2="84" gradientUnits="userSpaceOnUse">
      <stop stop-color="#fff8bd"/>
      <stop offset=".35" stop-color="#ffd94b"/>
      <stop offset=".7" stop-color="#f49a00"/>
      <stop offset="1" stop-color="#fff3a0"/>
    </linearGradient>
    <filter id="glow" x="-20%" y="-20%" width="140%" height="140%" color-interpolation-filters="sRGB">
      <feDropShadow dx="0" dy="2" stdDeviation="3" flood-color="#ffb700" flood-opacity=".45"/>
      <feDropShadow dx="0" dy="8" stdDeviation="8" flood-color="#000000" flood-opacity=".4"/>
    </filter>
  </defs>
  <g filter="url(#glow)">
    <path d="M18 40 42 27v22L18 58Z" fill="url(#wing)" stroke="#ffd84f" stroke-width="2"/>
    <path d="M16 66 42 56v20L16 84Z" fill="url(#wing)" stroke="#d88400" stroke-width="2"/>
    <path d="M110 40 86 27v22l24 9Z" fill="url(#wing)" stroke="#ffd84f" stroke-width="2"/>
    <path d="M112 66 86 56v20l26 8Z" fill="url(#wing)" stroke="#d88400" stroke-width="2"/>
    <path d="M64 12 98 28v34c0 28-15 46-34 56-19-10-34-28-34-56V28Z" fill="url(#gold)" stroke="#ffe37a" stroke-width="4" stroke-linejoin="round"/>
    <path d="M64 23 88 34v29c0 19-9 33-24 42-15-9-24-23-24-42V34Z" fill="url(#shieldInner)" stroke="#f5a400" stroke-width="3" stroke-linejoin="round"/>
    <path d="m64 35 8 17 19 2-14 12 4 19-17-10-17 10 4-19-14-12 19-2Z" fill="url(#star)" stroke="#fff2a3" stroke-width="2" stroke-linejoin="round"/>
    <path d="M64 16v101" fill="none" stroke="#fff7b0" stroke-width="2" opacity=".35"/>
    <path d="M39 32c9-5 17-9 25-13 8 4 16 8 25 13" fill="none" stroke="#fff9bd" stroke-width="3" stroke-linecap="round" opacity=".75"/>
  </g>
</svg>
